<svg width="56" height="56" viewBox="0 0 56 56" fill="none" xmlns="http://www.w3.org/2000/svg">
<circle cx="28" cy="28" r="27.5" fill="white" stroke="#010101"/>
<path d="M32.1431 23.8038L22.8103 33.127C22.6718 33.2653 22.4978 33.3329 22.2883 33.3298C22.0787 33.3266 21.9046 33.2558 21.7661 33.1173C21.6278 32.9788 21.5586 32.8063 21.5586 32.6C21.5586 32.3937 21.6278 32.2213 21.7661 32.0828L31.0893 22.75H22.8931C22.6806 22.75 22.5024 22.6781 22.3586 22.5342C22.2149 22.3904 22.1431 22.2122 22.1431 21.9997C22.1431 21.7871 22.2149 21.609 22.3586 21.4655C22.5024 21.3218 22.6806 21.25 22.8931 21.25H32.7391C32.9953 21.25 33.2099 21.3366 33.3831 21.5098C33.5564 21.6831 33.6431 21.8978 33.6431 22.1538V32C33.6431 32.2125 33.5712 32.3906 33.4273 32.5343C33.2835 32.6781 33.1053 32.75 32.8928 32.75C32.6802 32.75 32.502 32.6781 32.3583 32.5343C32.2148 32.3906 32.1431 32.2125 32.1431 32V23.8038Z" fill="#010101"/>
</svg>
