<svg width="72" height="72" viewBox="0 0 72 72" fill="none" xmlns="http://www.w3.org/2000/svg">
<g filter="url(#filter0_ii_281_2173)">
<rect width="72" height="72" rx="10" fill="url(#paint0_linear_281_2173)"/>
<rect x="0.5" y="0.5" width="71" height="71" rx="9.5" stroke="url(#paint1_linear_281_2173)"/>
<path d="M28.0866 48.5C26.8138 48.5 25.7314 48.0544 24.8395 47.1633C23.9473 46.2719 23.5011 45.1897 23.5011 43.9167H21.0878C20.7336 43.9167 20.4367 43.7968 20.197 43.5571C19.9575 43.3174 19.8378 43.0204 19.8378 42.6663C19.8378 42.3118 19.9575 42.015 20.197 41.7758C20.4367 41.5364 20.7336 41.4167 21.0878 41.4167H24.3603C24.747 40.7819 25.2678 40.2761 25.9228 39.8992C26.5775 39.5219 27.2981 39.3333 28.0845 39.3333C28.8709 39.3333 29.5916 39.5219 30.2466 39.8992C30.9013 40.2761 31.4221 40.7819 31.8091 41.4167H39.1357L42.7161 26H25.9691C25.6149 26 25.3181 25.8801 25.0786 25.6404C24.8389 25.4007 24.7191 25.1037 24.7191 24.7496C24.7191 24.3951 24.8389 24.0983 25.0786 23.8592C25.3181 23.6197 25.6149 23.5 25.9691 23.5H43.9499C44.4413 23.5 44.8377 23.6897 45.1391 24.0692C45.4402 24.4483 45.532 24.8751 45.4145 25.3496L44.3953 29.75H47.0586C47.5359 29.75 47.9878 29.8567 48.4145 30.07C48.8414 30.2836 49.1929 30.5786 49.4691 30.955L52.5299 35.0163C52.8035 35.3729 52.9792 35.7537 53.057 36.1588C53.135 36.5635 53.1378 36.9807 53.0653 37.4104L52.0045 42.7117C51.9317 43.0683 51.7556 43.3583 51.4761 43.5817C51.1967 43.805 50.8792 43.9167 50.5236 43.9167H49.142C49.142 45.1881 48.6966 46.2697 47.8057 47.1617C46.9149 48.0539 45.8332 48.5 44.5607 48.5C43.2882 48.5 42.2059 48.0544 41.3136 47.1633C40.4217 46.2719 39.9757 45.1897 39.9757 43.9167H32.6678C32.6678 45.1881 32.2224 46.2697 31.3316 47.1617C30.4407 48.0539 29.3591 48.5 28.0866 48.5ZM42.5107 37.875H50.4082L50.6391 36.6954L47.3153 32.25H43.8216L42.5107 37.875ZM39.3795 40.4358L39.6232 39.3483C39.7854 38.6233 39.9916 37.7358 40.2416 36.6858C40.3463 36.25 40.443 35.8472 40.5316 35.4775C40.6202 35.1078 40.6923 34.7756 40.7478 34.4808L40.9916 33.3933C41.1541 32.6683 41.3603 31.7808 41.6103 30.7308C41.86 29.6808 42.0661 28.7933 42.2286 28.0683L42.4724 26.9808L42.7161 26L39.1357 41.4167L39.3795 40.4358ZM19.3666 37.9358C19.0168 37.9358 18.7238 37.816 18.4874 37.5763C18.251 37.3365 18.1328 37.0396 18.1328 36.6854C18.1328 36.331 18.2525 36.0342 18.492 35.795C18.7314 35.5556 19.0282 35.4358 19.3824 35.4358H25.1999C25.5541 35.4358 25.8509 35.5557 26.0903 35.7954C26.33 36.0351 26.4499 36.3322 26.4499 36.6867C26.4499 37.0408 26.33 37.3376 26.0903 37.5771C25.8509 37.8163 25.5541 37.9358 25.1999 37.9358H19.3666ZM22.6999 31.9808C22.3457 31.9808 22.0489 31.861 21.8095 31.6212C21.5698 31.3815 21.4499 31.0846 21.4499 30.7304C21.4499 30.376 21.5698 30.079 21.8095 29.8396C22.0489 29.6004 22.3457 29.4808 22.6999 29.4808H30.1999C30.5541 29.4808 30.8509 29.6007 31.0903 29.8404C31.33 30.0801 31.4499 30.3771 31.4499 30.7312C31.4499 31.0857 31.33 31.3825 31.0903 31.6217C30.8509 31.8611 30.5541 31.9808 30.1999 31.9808H22.6999ZM28.0845 46C28.6636 46 29.1556 45.7975 29.5603 45.3925C29.9653 44.9878 30.1678 44.4958 30.1678 43.9167C30.1678 43.3375 29.9653 42.8456 29.5603 42.4408C29.1556 42.0358 28.6636 41.8333 28.0845 41.8333C27.5053 41.8333 27.0134 42.0358 26.6086 42.4408C26.2036 42.8456 26.0011 43.3375 26.0011 43.9167C26.0011 44.4958 26.2036 44.9878 26.6086 45.3925C27.0134 45.7975 27.5053 46 28.0845 46ZM44.5591 46C45.138 46 45.6299 45.7975 46.0349 45.3925C46.4399 44.9878 46.6424 44.4958 46.6424 43.9167C46.6424 43.3375 46.4399 42.8456 46.0349 42.4408C45.6299 42.0358 45.138 41.8333 44.5591 41.8333C43.9799 41.8333 43.4878 42.0358 43.0828 42.4408C42.6778 42.8456 42.4753 43.3375 42.4753 43.9167C42.4753 44.4958 42.6778 44.9878 43.0828 45.3925C43.4878 45.7975 43.9799 46 44.5591 46Z" fill="white"/>
</g>
<defs>
<filter id="filter0_ii_281_2173" x="0" y="-4" width="72" height="81" filterUnits="userSpaceOnUse" color-interpolation-filters="sRGB">
<feFlood flood-opacity="0" result="BackgroundImageFix"/>
<feBlend mode="normal" in="SourceGraphic" in2="BackgroundImageFix" result="shape"/>
<feColorMatrix in="SourceAlpha" type="matrix" values="0 0 0 0 0 0 0 0 0 0 0 0 0 0 0 0 0 0 127 0" result="hardAlpha"/>
<feOffset dy="6"/>
<feGaussianBlur stdDeviation="2.5"/>
<feComposite in2="hardAlpha" operator="arithmetic" k2="-1" k3="1"/>
<feColorMatrix type="matrix" values="0 0 0 0 0.472756 0 0 0 0 0.472756 0 0 0 0 0.472756 0 0 0 0.55 0"/>
<feBlend mode="normal" in2="shape" result="effect1_innerShadow_281_2173"/>
<feColorMatrix in="SourceAlpha" type="matrix" values="0 0 0 0 0 0 0 0 0 0 0 0 0 0 0 0 0 0 127 0" result="hardAlpha"/>
<feOffset dy="-9"/>
<feGaussianBlur stdDeviation="2"/>
<feComposite in2="hardAlpha" operator="arithmetic" k2="-1" k3="1"/>
<feColorMatrix type="matrix" values="0 0 0 0 0 0 0 0 0 0 0 0 0 0 0 0 0 0 0.25 0"/>
<feBlend mode="normal" in2="effect1_innerShadow_281_2173" result="effect2_innerShadow_281_2173"/>
</filter>
<linearGradient id="paint0_linear_281_2173" x1="72" y1="0" x2="0" y2="72" gradientUnits="userSpaceOnUse">
<stop stop-color="#010101"/>
<stop offset="0.906596" stop-color="#525252"/>
</linearGradient>
<linearGradient id="paint1_linear_281_2173" x1="0" y1="0" x2="72" y2="72" gradientUnits="userSpaceOnUse">
<stop stop-color="#010101"/>
<stop offset="0.906596" stop-color="#525252"/>
</linearGradient>
</defs>
</svg>
